<?xml version="1.0" encoding="UTF-8" standalone="no"?>
<!-- Created with Inkscape (http://www.inkscape.org/) -->

<svg xmlns:dc="http://purl.org/dc/elements/1.1/" xmlns:cc="http://creativecommons.org/ns#" xmlns:rdf="http://www.w3.org/1999/02/22-rdf-syntax-ns#" xmlns:svg="http://www.w3.org/2000/svg" xmlns="http://www.w3.org/2000/svg" xmlns:sodipodi="http://sodipodi.sourceforge.net/DTD/sodipodi-0.dtd" xmlns:inkscape="http://www.inkscape.org/namespaces/inkscape" width="38.722778" height="40.000252" viewBox="0 0 10.245402 10.5834" version="1.1" id="svg8" sodipodi:docname="logo.svg" inkscape:version="0.92.3 (2405546, 2018-03-11)" shape-rendering="geometricPrecision">
	<defs id="defs2">
		<inkscape:path-effect effect="bspline" id="path-effect844" is_visible="true" weight="33.333333" steps="2" helper_size="0" apply_no_weight="true" apply_with_weight="true" only_selected="false" />
		<inkscape:path-effect effect="bspline" id="path-effect840" is_visible="true" weight="33.333333" steps="2" helper_size="0" apply_no_weight="true" apply_with_weight="true" only_selected="false" />
		<inkscape:path-effect effect="bspline" id="path-effect832" is_visible="true" weight="33.333333" steps="2" helper_size="0" apply_no_weight="true" apply_with_weight="true" only_selected="false" />
		<inkscape:path-effect effect="bspline" id="path-effect828" is_visible="true" weight="33.333333" steps="2" helper_size="0" apply_no_weight="true" apply_with_weight="true" only_selected="false" />
	</defs>
	<sodipodi:namedview id="base" pagecolor="#ffffff" bordercolor="#666666" borderopacity="1.0" inkscape:pageopacity="0.0" inkscape:pageshadow="2" inkscape:zoom="256" inkscape:cx="37.732183" inkscape:cy="41.165779" inkscape:document-units="mm" inkscape:current-layer="layer1" showgrid="false" fit-margin-top="0" fit-margin-left="0" fit-margin-right="0" fit-margin-bottom="0" inkscape:window-width="1920" inkscape:window-height="1017" inkscape:window-x="-8" inkscape:window-y="-8" inkscape:window-maximized="1" inkscape:object-paths="true" inkscape:snap-intersection-paths="true" inkscape:object-nodes="true" inkscape:snap-smooth-nodes="true" inkscape:snap-nodes="false" units="px" />
	<metadata id="metadata5">
		<rdf:RDF>
			<cc:Work rdf:about="">
				<dc:format>image/svg+xml</dc:format>
				<dc:type rdf:resource="http://purl.org/dc/dcmitype/StillImage" />
				<dc:title></dc:title>
			</cc:Work>
		</rdf:RDF>
	</metadata>
	<g inkscape:label="Ebene 1" inkscape:groupmode="layer" id="layer1" transform="translate(-43.535698,-114.29372)" style="opacity:1">
		<path style="fill:#000000;stroke:#000000;stroke-width:0.19612603;stroke-linecap:butt;stroke-linejoin:miter;stroke-miterlimit:4;stroke-dasharray:none;stroke-opacity:1" d="m 46.804797,121.95684 c 0,-2.26635 0,-4.53276 0.0014,-5.67887 0.0014,-1.14612 0.0041,-1.172 0.0079,-1.19924 0.0038,-0.0273 0.0097,-0.0613 0.0261,-0.0986 0.01634,-0.0374 0.04363,-0.0811 0.07425,-0.12122 0.03062,-0.0401 0.06473,-0.077 0.100792,-0.11304 0.03605,-0.0361 0.07426,-0.0714 0.113049,-0.1042 0.03878,-0.0327 0.07836,-0.0627 0.129371,-0.0959 0.05101,-0.0333 0.113785,-0.0701 0.167557,-0.0953 0.05377,-0.0252 0.09877,-0.0388 0.149112,-0.047 0.05033,-0.008 0.106279,-0.0109 0.181809,-0.0115 0.07553,-6.9e-4 0.170922,6.9e-4 0.26626,0.002 -0.04767,0.01 -0.09526,0.0191 -0.143362,0.0373 -0.0481,0.0183 -0.09762,0.0458 -0.150796,0.0799 -0.05316,0.0341 -0.110278,0.0748 -0.166499,0.12088 -0.05622,0.0461 -0.112671,0.0983 -0.159008,0.14877 -0.04634,0.0505 -0.08306,0.0993 -0.108278,0.13618 -0.02521,0.0368 -0.03881,0.0613 -0.04827,0.0899 -0.0094,0.0287 -0.0151,0.064 -0.0151,0.0973 -5e-6,0.0334 0.0054,0.066 0.01429,0.096 0.0088,0.03 0.0211,0.0572 0.768963,1.25159 0.747864,1.1944 2.228079,3.55078 2.985675,4.7518 0.757596,1.20102 0.789623,1.24239 0.817564,1.26964 0.02795,0.0273 0.05109,0.0395 0.07834,0.043 0.02724,0.003 0.05861,-0.002 0.08444,-0.0232 0.02584,-0.0211 0.04632,-0.058 0.06596,-0.10401 0.01966,-0.0461 0.03889,-0.10241 0.05318,-0.16773 0.01429,-0.0653 0.02383,-0.14033 0.03132,-0.21997 0.0075,-0.0797 0.01293,-0.16416 0.0177,-0.25877 0.0048,-0.0946 0.0088,-0.19958 0.0048,-1.2953 -0.0041,-1.09572 -0.01636,-3.18772 -0.02112,-4.25008 -0.0048,-1.06234 -0.002,-1.09776 0.0073,-1.13729 0.0093,-0.0395 0.02612,-0.0857 0.04927,-0.13272 0.02313,-0.047 0.05315,-0.096 0.06811,-0.12054 0.01496,-0.0245 0.141622,-0.15114 0.166137,-0.16885 0.02451,-0.0178 0.07362,-0.0532 0.121259,-0.0831 0.04764,-0.03 0.09401,-0.0545 0.145041,-0.0769 0.05104,-0.0225 0.106963,-0.0429 0.164789,-0.0573 0.05783,-0.0144 0.126935,-0.0241 0.203701,-0.0265 0.07677,-0.002 0.237311,3e-5 0.371001,0.002 0,0 -0.07072,-6.1e-4 -0.07072,-6.1e-4 -0.05836,0.0132 -0.116643,0.0263 -0.176507,0.0492 -0.05987,0.0229 -0.121072,0.0556 -0.181038,0.0903 -0.05997,0.0347 -0.118457,0.0714 -0.147777,0.0898 -0.02932,0.0185 -0.188673,0.17777 -0.202292,0.20636 -0.01362,0.0286 -0.04082,0.0857 -0.0599,0.13207 -0.01909,0.0464 -0.02996,0.0817 -0.0361,0.1383 -0.0061,0.0567 -0.0075,0.13408 -0.0082,1.51627 -6.92e-4,1.38221 -6.92e-4,4.0644 -2e-6,5.42366 6.93e-4,1.35925 0.002,1.39331 0.0068,1.42467 0.0048,0.0314 0.01292,0.0599 0.02315,0.0851 0.01023,0.0253 0.02247,0.047 0.04224,0.0633 0.01979,0.0163 0.04697,0.0273 0.0742,0.0381 -0.167525,9.9e-4 -0.334983,0.003 -0.437803,-0.006 -0.102819,-0.008 -0.140878,-0.0269 -0.177665,-0.0542 -0.0368,-0.0273 -0.07227,-0.0634 -0.687566,-1.03492 -0.615298,-0.97157 -1.811839,-2.88086 -2.515113,-4.00282 -0.703272,-1.12197 -0.914767,-1.459 -1.041174,-1.6541 -0.126405,-0.19512 -0.16914,-0.25026 -0.20903,-0.29964 -0.03989,-0.0494 -0.07861,-0.0949 -0.111279,-0.12767 -0.03268,-0.0327 -0.05992,-0.0532 -0.08237,-0.0632 -0.02245,-0.0102 -0.04015,-0.0102 -0.05789,-0.0102 -0.01774,0 -0.03537,0 -0.05175,0.01 -0.01638,0.01 -0.03131,0.0286 -0.04292,0.0573 -0.01161,0.0287 -0.01976,0.0666 -0.02452,0.13964 -0.0048,0.0729 -0.0061,0.18037 -0.0075,1.23107 -0.0014,1.05071 -0.0027,2.98727 -0.0069,4.05714 -0.0042,1.06986 -0.01082,1.15729 -0.02308,1.23019 -0.01226,0.0729 -0.02994,0.12866 -0.05651,0.19682 -0.02658,0.0682 -0.06194,0.14839 -0.101456,0.22675 -0.03952,0.0783 -0.08305,0.15455 -0.135516,0.22951 -0.05246,0.075 -0.113686,0.14842 -0.183478,0.21962 -0.06979,0.0712 -0.149479,0.14127 -0.233276,0.20736 -0.0838,0.0661 -0.172251,0.12869 -0.260815,0.18251 -0.08856,0.0539 -0.17702,0.0987 -0.26695,0.13961 -0.08993,0.0409 -0.181104,0.0776 -0.267625,0.10828 -0.08652,0.0307 -0.168172,0.0552 -0.241751,0.0737 -0.07358,0.0185 -0.138895,0.0307 -0.201581,0.0409 -0.06268,0.0102 -0.122545,0.0184 -0.207058,0.0232 -0.08451,0.005 -0.196062,0.006 -0.302335,-0.002 -0.106273,-0.008 -0.208359,-0.0259 -0.303729,-0.0511 -0.09537,-0.0252 -0.183853,-0.0579 -0.263554,-0.0973 -0.0797,-0.0395 -0.150495,-0.0858 -0.211458,-0.13383 -0.06097,-0.0481 -0.113387,-0.099 -0.162583,-0.16679 -0.0492,-0.0677 -0.09519,-0.15159 -0.125147,-0.23195 -0.02996,-0.0803 -0.04358,-0.15665 -0.05106,-0.23018 -0.0075,-0.0734 -0.0088,-0.14441 -0.0022,-0.21727 0.0067,-0.0729 0.02193,-0.1505 0.04187,-0.22804 0.01994,-0.0776 0.04409,-0.154 0.07864,-0.23199 0.03456,-0.078 0.07988,-0.15764 0.124803,-0.22911 0.04492,-0.0714 0.08992,-0.13555 0.162052,-0.21448 0.07214,-0.0789 0.171677,-0.17302 0.262904,-0.25132 0.09123,-0.0784 0.174364,-0.14097 0.264213,-0.20905 0.08985,-0.068 0.186634,-0.14167 0.290107,-0.2043 0.103471,-0.0626 0.213876,-0.11442 0.320754,-0.15458 0.106879,-0.0401 0.210465,-0.0687 0.310563,-0.0931 0.100093,-0.0244 0.199537,-0.0452 0.30778,-0.0567 0.108244,-0.0115 0.226796,-0.0144 0.339804,-0.007 0.113008,0.007 0.220667,0.0232 0.309167,0.0464 0.0885,0.0232 0.157997,0.0532 0.213824,0.079 0.05583,0.0259 0.09804,0.0477 0.140268,0.0695 0,0 -1e-6,-1e-5 -1e-6,-1e-5 z" id="path826" inkscape:connector-curvature="0" />
		<path style="fill:none;stroke:#000000;stroke-width:0.19612603;stroke-linecap:butt;stroke-linejoin:miter;stroke-miterlimit:4;stroke-dasharray:none;stroke-opacity:1" d="m 48.022406,114.39374 c 0.03865,-10e-4 0.07724,-0.002 0.109499,0.001 0.03226,0.003 0.05831,0.011 0.08636,0.0257 0.02806,0.0147 0.05955,0.0373 0.108648,0.0993 0.0491,0.0621 0.116533,0.16422 0.757462,1.17462 0.640931,1.0104 1.85501,2.92855 3.069283,4.84699" id="path830" inkscape:connector-curvature="0" />
		<path style="fill:none;stroke:#000000;stroke-width:0.19612603;stroke-linecap:butt;stroke-linejoin:miter;stroke-miterlimit:4;stroke-dasharray:none;stroke-opacity:1" d="m 53.286648,114.41192 c 0.0238,-0.006 0.04768,-0.0111 0.08385,-0.014 0.03616,-0.003 0.08462,-0.003 0.116704,-0.001 0.03209,0.002 0.04755,0.005 0.0659,0.0135 0.01835,0.009 0.03968,0.0229 0.05643,0.0372 0.01676,0.0143 0.02902,0.029 0.03795,0.045 0.0089,0.016 0.01455,0.0331 0.01967,0.051 0.0051,0.018 0.0097,0.0364 0.01234,0.0634 0.0026,0.027 0.0033,0.0624 0.0035,1.41899 1.74e-4,1.35667 -1.63e-4,4.0249 -9.99e-4,5.37811 -8.41e-4,1.35321 -0.0022,1.38659 -0.0051,1.42016 -0.0029,0.0336 -0.0073,0.0671 -0.01396,0.10164 -0.0066,0.0344 -0.01547,0.0694 -0.02706,0.10112 -0.01158,0.0317 -0.02585,0.0599 -0.05707,0.0997 -0.03122,0.0399 -0.07908,0.0911 -0.127979,0.13957 -0.0489,0.0484 -0.09854,0.0936 -0.149986,0.13535 -0.05145,0.0417 -0.104493,0.0798 -0.15338,0.11066 -0.04889,0.0308 -0.09344,0.0543 -0.131258,0.0731 -0.03782,0.019 -0.06868,0.0332 -0.109641,0.044 -0.04097,0.0107 -0.0915,0.0179 -0.128841,0.0212 -0.03734,0.003 -0.06115,0.003 -0.08136,-0.001 -0.02022,-0.004 -0.03669,-0.0112 -0.05323,-0.0186" id="path838" inkscape:connector-curvature="0" />
		<path style="fill:none;stroke:#000000;stroke-width:0.19612603;stroke-linecap:butt;stroke-linejoin:miter;stroke-miterlimit:4;stroke-dasharray:none;stroke-opacity:1" d="m 48.382632,117.7704 c 0.0025,1.61742 0.005,3.23489 0.0035,4.08518 -0.0015,0.85029 -0.0069,0.93336 -0.0185,1.01919 -0.01158,0.0858 -0.02927,0.1743 -0.05509,0.27017 -0.02582,0.0958 -0.05997,0.19968 -0.111745,0.31277 -0.05177,0.1131 -0.121183,0.23559 -0.198153,0.34116 -0.07697,0.10559 -0.161357,0.19406 -0.258777,0.28264 -0.09741,0.0885 -0.207657,0.17703 -0.325506,0.25401 -0.11785,0.077 -0.24307,0.14231 -0.360917,0.19544 -0.117845,0.0532 -0.228097,0.0939 -0.337777,0.12941 -0.109679,0.0354 -0.218561,0.0653 -0.315295,0.0851 -0.09673,0.0198 -0.181116,0.0293 -0.443682,0.0324 -0.262564,0.003 -0.702495,-2.1e-4 -1.142865,-0.004" id="path842" inkscape:connector-curvature="0" />
	</g>
</svg>
